<svg width="23" height="26" xmlns="http://www.w3.org/2000/svg">
    <defs>
        <linearGradient x1="50%" y1="0%" x2="50%" y2="100%" id="a">
            <stop stop-color="#FADD3B" offset="0%"/>
            <stop stop-color="#F29C23" offset="100%"/>
        </linearGradient>
    </defs>
    <path d="M6.323 17.097a.84.84 0 0 1 .88.088l2.303 1.764a.84.84 0 0 1 .33.667v3.714a.84.84 0 0 1-1.34.675l-5.368-3.98a.84.84 0 0 1 .131-1.43zm8.974 0 3.063 1.498a.84.84 0 0 1 .132 1.43l-5.367 3.98a.84.84 0 0 1-1.341-.675v-3.714a.84.84 0 0 1 .33-.667l2.303-1.764a.84.84 0 0 1 .88-.088zm-5.062-9.806a.84.84 0 0 1 1.101 0l3.177 2.755a.84.84 0 0 1 .277.778l-.68 3.925a.84.84 0 0 1-.3.51l-2.475 1.996a.84.84 0 0 1-1.066-.009L7.877 15.25a.84.84 0 0 1-.285-.48l-.783-3.877a.938.938 0 0 1 .305-.895zM.012 9.959a.84.84 0 0 1 1.068-.521l3.3 1.136a.84.84 0 0 1 .552.632l.718 3.646a.84.84 0 0 1-.474.926l-3.134 1.44a.84.84 0 0 1-1.183-.645l-.884-6.222a.84.84 0 0 1 .037-.392zm21.576 0a.84.84 0 0 1 .037.392l-.884 6.222a.84.84 0 0 1-1.183.645l-3.134-1.44a.84.84 0 0 1-.474-.926l.718-3.646a.84.84 0 0 1 .551-.632l3.301-1.136a.84.84 0 0 1 1.068.521zM9.648.123a.84.84 0 0 1 .188.528v3.876a.84.84 0 0 1-.288.633L5.845 8.396a.84.84 0 0 1-.874.143L1.606 7.145a.84.84 0 0 1-.206-1.43L8.467-.002A.84.84 0 0 1 9.65.123zm2.322 0a.84.84 0 0 1 1.182-.125l7.067 5.717a.84.84 0 0 1-.206 1.43l-3.365 1.394a.84.84 0 0 1-.875-.143L12.07 5.16a.84.84 0 0 1-.287-.633V.651a.84.84 0 0 1 .187-.528z" transform="translate(1 1)" fill="url(#a)" fill-rule="evenodd"/>
</svg>
