<svg width="24" height="22" xmlns="http://www.w3.org/2000/svg">
    <defs>
        <linearGradient x1="50%" y1="0%" x2="50%" y2="100%" id="a">
            <stop stop-color="#00FF89" offset="0%"/>
            <stop stop-color="#00B964" offset="100%"/>
        </linearGradient>
    </defs>
    <path d="m11.997 6.431 10.588 6.922-.001 7.28A2.36 2.36 0 0 1 20.231 23H14.35v-8.282H9.645V23H3.763a2.358 2.358 0 0 1-2.346-2.19l-.006-.176V13.35l10.586-6.92zM10.426 1.73c1.375-.972 1.708-1.012 3.307.116l.428.307L23.395 8.3c1.13.796.57 2.583-.81 2.583l-.126-.037-10.25-6.589-.08-.043a.35.35 0 0 0-.242-.01l-.084.042-10.263 6.6-.127.037c-1.38 0-1.94-1.787-.804-2.586l9.23-6.144z" transform="translate(0 -1)" fill="url(#a)" fill-rule="evenodd"/>
</svg>
