<svg width="24" height="24" xmlns="http://www.w3.org/2000/svg">
    <defs>
        <linearGradient x1="50%" y1="0%" x2="50%" y2="100%" id="a">
            <stop stop-color="#00FF89" offset="0%"/>
            <stop stop-color="#00B964" offset="100%"/>
        </linearGradient>
    </defs>
    <path d="m16.742.63 2.175 2.175a1.611 1.611 0 0 0 2.279 2.279l2.175 2.174c.839.84.839 2.2 0 3.039L10.297 23.37c-.84.839-2.2.839-3.039 0l-2.175-2.175a1.611 1.611 0 1 0-2.279-2.279L.63 16.742a2.148 2.148 0 0 1 0-3.039L13.703.63a2.148 2.148 0 0 1 3.039 0zm-.129 10.815-.89.882a.448.448 0 0 0-.003.633l1.32 1.332a.448.448 0 0 0 .632.003l.89-.882a.448.448 0 0 0 .004-.633l-1.32-1.332a.448.448 0 0 0-.633-.003zM13.59 8.393l-.89.882a.448.448 0 0 0-.004.633l1.487 1.5a.448.448 0 0 0 .633.004l.89-.882a.448.448 0 0 0 .003-.633l-1.486-1.501a.448.448 0 0 0-.633-.003zm-3.024-3.052-.89.882a.448.448 0 0 0-.004.632l1.487 1.501a.448.448 0 0 0 .633.003l.89-.882a.448.448 0 0 0 .003-.633l-1.486-1.5a.448.448 0 0 0-.633-.003z" fill="url(#a)" fill-rule="evenodd"/>
</svg>
