<svg width="175" height="50" xmlns="http://www.w3.org/2000/svg"><g fill="#00D170" fill-rule="nonzero"><path d="M25.01 5.914a5.456 5.456 0 01-6.413 2.737 9.22 9.22 0 00-2.62-.389c-1.81 0-4.225 1.058-4.225 3.174 0 2.216 2.666 3.073 4.376 3.627l2.515.756C23.926 17.38 28 20.05 28 26.197c0 3.778-.905 7.657-3.923 10.226C21.108 38.943 17.134 40 13.31 40c-4.76 0-9.419-1.599-13.283-4.3a.066.066 0 01-.02-.084l4.198-7.908c2.465 2.166 5.382 3.93 8.753 3.93 2.314 0 4.779-1.16 4.779-3.83 0-2.77-3.873-3.727-5.986-4.332-6.188-1.763-10.263-3.375-10.263-10.73C1.49 5.038 6.973 0 14.57 0c3.802 0 8.45 1.196 11.817 3.093.03.017.042.055.026.086l-1.401 2.735zM39.148 16.228h.001c.021 0 .041-.01.053-.028 2.093-3.137 4.633-4.2 8.166-4.2C54.255 12 57 16.432 57 22.851v10.63C57 36.529 54.579 39 51.592 39h-3.61a.065.065 0 01-.065-.066v-12.67c0-2.496.4-6.877-4.093-6.877-3.693 0-4.74 2.802-4.74 6.062v8.032c0 3.048-2.422 5.519-5.408 5.519h-3.611a.065.065 0 01-.065-.066V12.932c0-.036.029-.066.065-.066h8.953c.036 0 .065.03.065.066v3.23c0 .037.03.066.065.066M68.431 26.026c0 3.327 2.158 5.886 5.87 5.886s5.87-2.559 5.87-5.886c0-3.225-2.158-5.938-5.87-5.938s-5.87 2.713-5.87 5.938M83.564 39.13h-3.63a.066.066 0 01-.065-.066v-2.785a.065.065 0 00-.065-.067.063.063 0 00-.054.03C78.14 38.833 74.992 40 71.993 40 64.368 40 59 33.5 59 25.975S64.267 12 71.893 12c2.901 0 5.947 1.082 7.862 3.295.04.046.114.018.114-.043v-2.316c0-.036.03-.066.065-.066h9c.037 0 .066.03.066.066v20.647c0 3.064-2.434 5.547-5.436 5.547M100.83 25.95c0 3.31 2.157 5.856 5.869 5.856 3.712 0 5.87-2.546 5.87-5.855 0-3.208-2.158-5.906-5.87-5.906s-5.87 2.698-5.87 5.906m.367-10.132a.064.064 0 00.054-.03c1.66-2.576 4.758-3.789 7.757-3.789C116.682 12 122 18.517 122 26.001c0 7.536-5.267 13.85-12.893 13.85-2.953 0-6.005-1.064-7.962-3.344-.005-.006-.015-.002-.015.005v7.972c0 3.046-2.433 5.516-5.435 5.516H92V12.866h9.13v2.887c0 .036.03.066.066.066M132.83 25.95c0 3.31 2.157 5.856 5.869 5.856 3.712 0 5.87-2.546 5.87-5.855 0-3.208-2.158-5.906-5.87-5.906s-5.87 2.698-5.87 5.906m.367-10.132a.064.064 0 00.054-.03c1.66-2.576 4.758-3.789 7.757-3.789C148.682 12 154 18.517 154 26.001c0 7.536-5.267 13.85-12.893 13.85-2.903 0-5.903-1.029-7.863-3.23a.065.065 0 00-.113.043v7.82c0 3.046-2.434 5.516-5.436 5.516h-3.63a.065.065 0 01-.065-.066V12.931c0-.036.03-.065.065-.065h9c.037 0 .066.029.066.065v2.822c0 .036.029.066.065.066M164.296 25H159l6.357-23.952A.066.066 0 01165.42 1h9.513c.043 0 .074.04.064.08l-5.26 19.828c-.64 2.41-2.879 4.092-5.442 4.092M156 34.036c.005 3.377 2.215 5.97 6.01 5.964 3.794-.006 5.995-2.607 5.99-5.984-.006-3.273-2.215-6.022-6.01-6.016-3.795.007-5.996 2.763-5.99 6.036M163 3h-.513V1.386h-.011L161.793 3h-.302l-.682-1.614h-.012V3h-.513V1h.828l.53 1.183.53-1.183H163v2zm-3.001-1.614h-.717V3h-.565V1.386H158V1h1.999v.386z"/></g></svg>